<?xml version="1.0" encoding="UTF-8" standalone="no"?>
<svg
   width="16"
   height="16"
   version="1.1"
   id="svg8"
   sodipodi:docname="shader.svg"
   xml:space="preserve"
   inkscape:version="1.4.3 (0d15f75, 2025-12-25)"
   xmlns:inkscape="http://www.inkscape.org/namespaces/inkscape"
   xmlns:sodipodi="http://sodipodi.sourceforge.net/DTD/sodipodi-0.dtd"
   xmlns="http://www.w3.org/2000/svg"
   xmlns:svg="http://www.w3.org/2000/svg"><defs
     id="defs8" /><sodipodi:namedview
     id="namedview8"
     pagecolor="#505050"
     bordercolor="#eeeeee"
     borderopacity="1"
     inkscape:showpageshadow="0"
     inkscape:pageopacity="0"
     inkscape:pagecheckerboard="0"
     inkscape:deskcolor="#505050"
     inkscape:zoom="22.627418"
     inkscape:cx="9.3912615"
     inkscape:cy="0.64081549"
     inkscape:window-width="1920"
     inkscape:window-height="1017"
     inkscape:window-x="1912"
     inkscape:window-y="-8"
     inkscape:window-maximized="1"
     inkscape:current-layer="svg8"><inkscape:page
       x="0"
       y="0"
       width="16"
       height="16"
       id="page8"
       margin="0"
       bleed="0" /><inkscape:page
       x="26"
       y="0"
       width="16"
       height="16"
       id="page9"
       margin="0"
       bleed="0" /></sodipodi:namedview><path
     fill="#e0e0e0"
     d="M 15,9.547513 V 6 L 10,1 H 2 C 1.4477153,1 1,1.4477153 1,2 v 12 c 0,0.552285 0.4477153,1 1,1 h 6.070497 c 0,0 -0.8449124,-0.53125 -1.3292874,-2 H 3 V 3 h 6 v 3 c 0,0.5522847 0.4477153,1 1,1 h 3 v 0.951354 c 1.845399,0.893252 2,1.596159 2,1.596159 z"
     id="path1"
     sodipodi:nodetypes="cccsssscccccssccc" /><path
     fill="#ffe345"
     d="M4 6h2v1H4z"
     id="path3" /><path
     fill="#80ff45"
     d="m 8,8 h 4 V 8.2643102 C 11.060874,8.1317277 9.8442518,8.226602 8.9382713,9 H 8 Z"
     id="path4"
     sodipodi:nodetypes="cccccc" /><path
     fill="#45d7ff"
     d="M7 6h1v1H7z"
     id="path5" /><path
     fill="#ff4596"
     d="m 4,11 h 3.2985244 c 0,0 -0.3638167,0.62435 -0.4087961,1 H 4 Z"
     id="path6"
     sodipodi:nodetypes="ccccc" /><path
     fill="#ff4545"
     d="M4 4h3v1H4z"
     id="path7" /><path
     fill="#45ffa2"
     d="M4 8h3v1H4z"
     id="path8" /><path
     fill="#e0e0e0"
     d="m 11.371081,8.4971744 c -1.5239517,0 -3.4513915,1.160992 -4.1451262,3.4001346 a 0.59599213,0.59599213 0 0 0 0,0.327796 c 0.6663199,2.357745 2.6551461,3.423975 4.1451262,3.423975 1.48998,0 3.478209,-1.06623 4.1487,-3.412056 a 0.59599213,0.59599213 0 0 0 0,-0.327796 c -0.65559,-2.258809 -2.626536,-3.4120536 -4.1487,-3.4120536 z m 0,1.1919833 a 2.3839688,2.3839688 0 0 1 0,4.7679373 2.3839688,2.3839688 0 0 1 0,-4.7679373 z m 0,1.1919843 a 1.1919845,1.1919845 0 0 0 0,2.383969 1.1919845,1.1919845 0 0 0 0,-2.383969 z"
     id="path1-0"
     style="stroke-width:0.595992" /></svg>
