<svg width="16" height="16" viewBox="0 0 16 16" fill="none" xmlns="http://www.w3.org/2000/svg">
<path d="M12.999 7.29834C13.091 7.29834 13.1826 7.3159 13.2676 7.35107C13.3526 7.3863 13.43 7.43835 13.4951 7.50342C13.5602 7.56854 13.6122 7.64587 13.6475 7.73096C13.6827 7.81604 13.7002 7.90742 13.7002 7.99951C13.7002 8.09157 13.6827 8.18301 13.6475 8.26807C13.6122 8.35308 13.5602 8.43053 13.4951 8.49561L8.49512 13.4956C8.43004 13.5606 8.35257 13.6118 8.26758 13.647C8.18249 13.6822 8.09112 13.7007 7.99902 13.7007C7.90714 13.7006 7.81635 13.6821 7.73145 13.647C7.64653 13.6118 7.56895 13.5605 7.50391 13.4956C7.43886 13.4306 7.3868 13.353 7.35156 13.2681C7.31633 13.183 7.29787 13.0916 7.29785 12.9995C7.29785 12.9074 7.31632 12.816 7.35156 12.731C7.38681 12.6459 7.43881 12.5685 7.50391 12.5034L12.5039 7.50342C12.569 7.43842 12.6465 7.38627 12.7314 7.35107C12.8163 7.31602 12.9072 7.29838 12.999 7.29834ZM11.999 1.79736C12.0911 1.79736 12.1825 1.81579 12.2676 1.85107C12.3503 1.88542 12.4254 1.93582 12.4893 1.99854L12.4951 2.00439C12.5602 2.06941 12.6122 2.14695 12.6475 2.23193C12.6827 2.31689 12.7002 2.40852 12.7002 2.50049C12.7001 2.59228 12.6826 2.68326 12.6475 2.76807C12.6122 2.85305 12.5602 2.93059 12.4951 2.99561L2.99512 12.4956C2.86362 12.627 2.68492 12.7007 2.49902 12.7007C2.31332 12.7006 2.13531 12.6268 2.00391 12.4956C1.87241 12.3641 1.79788 12.1855 1.79785 11.9995C1.79785 11.8135 1.87239 11.6349 2.00391 11.5034L11.5039 2.00342C11.5688 1.93835 11.6456 1.88636 11.7305 1.85107C11.8155 1.81579 11.907 1.79741 11.999 1.79736Z" fill="white" stroke="#8B8B8B" stroke-width="0.1"/>
</svg>
